# xmcd CD database file
#
# Track frame offsets:
#	187
#	18492
#	34227
#	51560
#	66892
#	87030
#	106455
#	122227
#	154070
#
# Disc length: 2406 seconds
#
# Revision: 0
# Processed by: cddbd v1.5PL3 Copyright (c) Steve Scherf et al.
# Submitted via: CDex 1.51
#
DISCID=78096409
DTITLE=namco - VIDEO GAME GRAFFITI
DYEAR=1986
DGENRE=Game
TTITLE0=MOTOS
TTITLE1=SKYKID
TTITLE2=BARADUKE
TTITLE3=STAR LUSTER
TTITLE4=源平討魔伝
TTITLE5=かっとびラリーＸ！(NEW RALLY-X)
TTITLE6=ちょっとマッピー男の子(MAPPY)
TTITLE7=恋のディグダグ(DIGDUG)
TTITLE8=目蒲線の女-リブルとラブルのお話-(LIBBLE RABBLE)
EXTD=YEAR: 1986
EXTT0=
EXTT1=
EXTT2=
EXTT3=
EXTT4=
EXTT5=
EXTT6=
EXTT7=
EXTT8=
PLAYORDER=
